<?xml version="1.0" encoding="UTF-8"?>
<!-- My Brand New Logo (1.0.120), id: 0NKPkjOgQJhzE60mEnWl (1.2.0), date: 2022-03-02 21:18 -->
<svg version="1.1" preserveAspectRatio="xMidYMid meet" xmlns="http://www.w3.org/2000/svg" xmlns:xlink="http://www.w3.org/1999/xlink" viewBox="71.15 262.399 858.601 476.424" width="1000" height="556">
	<defs>
		<g id="def-1" transform="matrix(4.253, 0, 0, 4.253, 306.468, 267.069)" fill="#fff" stroke="none" stroke-width="1">
			<g transform="translate(-4.499, -25.882)">
				<g></g>
				<path fill="none" d=" M50.482,28.475 c-0.03,0.03 -0.071,0.048 -0.106,0.072 C50.411,28.522,50.452,28.505,50.482,28.475 z"></path>
				<path fill="none" d=" M50.628,28.259 c-0.021,0.052 -0.06,0.093 -0.093,0.138 C50.568,28.352,50.606,28.311,50.628,28.259 z"></path>
				<path fill="none" d=" M50.553,27.618 c0.025,0.037,0.058,0.069,0.075,0.111 C50.61,27.688,50.578,27.655,50.553,27.618 z"></path>
				<path fill="none" d=" M50.266,28.621 c-0.082,0.034 -0.171,0.053 -0.265,0.053 C50.095,28.674,50.184,28.655,50.266,28.621 z"></path>
				<path fill="none" d=" M50.001,28.674 c-0.375,0 -0.68 -0.304 -0.68 -0.68 s0.305 -0.68,0.68 -0.68 c-0.376,0 -0.681,0.304 -0.681,0.68 S49.625,28.674,50.001,28.674 z"></path>
				<path fill="none" d=" M50.001,27.314 c0.094,0,0.183,0.019,0.265,0.053 C50.184,27.333,50.095,27.314,50.001,27.314 z"></path>
				<path fill="none" d=" M50.376,27.442 c0.036,0.024,0.076,0.041,0.106,0.071 C50.452,27.483,50.412,27.466,50.376,27.442 z"></path>
				<path fill="none" d=" M54.305,70.684 c0.375,0,0.678,0.305,0.68,0.68 C54.984,70.988,54.68,70.684,54.305,70.684 z"></path>
				<path d=" M86.63,69.109 c0.108 -0.227,0.177 -0.478,0.177 -0.746 V28.107 c0 -0.953 -0.772 -1.725 -1.727 -1.725 H14.92 c-0.953,0 -1.724,0.772 -1.724,1.725 v40.256 c0,0.269,0.066,0.52,0.176,0.746 H5 v2.783 c0,0.953,0.773,1.725,1.726,1.725 h86.549 c0.953,0,1.726 -0.771,1.726 -1.725 v-2.783 H86.63 z M50.001,27.314 c0.094,0,0.183,0.019,0.265,0.053 c0.042,0.018,0.074,0.049,0.11,0.075 c0.036,0.024,0.076,0.041,0.106,0.071 c0.03,0.03,0.047,0.07,0.071,0.105 c0.025,0.037,0.058,0.069,0.075,0.111 c0.034,0.081,0.054,0.171,0.054,0.265 s-0.02,0.183 -0.054,0.265 c-0.021,0.052 -0.06,0.093 -0.093,0.138 c-0.02,0.025 -0.031,0.056 -0.053,0.078 c-0.03,0.03 -0.071,0.048 -0.106,0.072 c-0.037,0.025 -0.069,0.057 -0.11,0.074 c-0.082,0.034 -0.171,0.053 -0.265,0.053 c-0.376,0 -0.681 -0.304 -0.681 -0.68 S49.625,27.314,50.001,27.314 z M16.143,29.708 h67.714 v36.571 H16.143 V29.708 z M54.305,72.046 h-8.608 c-0.375,0 -0.68 -0.305 -0.68 -0.683 c0 -0.375,0.305 -0.68,0.68 -0.68 h8.608 c0.375,0,0.68,0.305,0.68,0.68 C54.984,71.741,54.68,72.046,54.305,72.046 z"></path>
				<polygon points="25.039,48.313 25.039,49.536 25.039,49.537 44.878,49.537 44.878,49.536 44.878,48.313 44.878,48.312   25.039,48.312 "></polygon>
				<rect x="36.633" y="58.613" width="3.488" height="1.225"></rect>
				<rect x="46.552" y="48.313" width="3.488" height="1.224"></rect>
				<rect x="39.377" y="46.296" width="3.488" height="1.224"></rect>
				<rect x="20.692" y="31.829" width="3.489" height="1.224"></rect>
				<rect x="20.692" y="42.131" width="3.489" height="1.224"></rect>
				<rect x="20.692" y="46.296" width="3.489" height="1.224"></rect>
				<rect x="20.692" y="48.313" width="3.489" height="1.224"></rect>
				<rect x="20.692" y="44.191" width="5.832" height="1.224"></rect>
				<rect x="25.039" y="46.296" width="12.665" height="1.224"></rect>
				<rect x="20.692" y="50.373" width="3.489" height="1.223"></rect>
				<rect x="20.692" y="54.494" width="3.489" height="1.223"></rect>
				<rect x="53.637" y="50.373" width="3.488" height="1.223"></rect>
				<rect x="25.039" y="50.373" width="27.761" height="1.223"></rect>
				<rect x="20.692" y="52.434" width="27.792" height="1.223"></rect>
				<rect x="25.039" y="54.494" width="23.444" height="1.223"></rect>
				<rect x="20.692" y="56.555" width="17.012" height="1.223"></rect>
				<rect x="20.692" y="58.613" width="14.267" height="1.225"></rect>
				<rect x="20.692" y="60.674" width="7.134" height="1.225"></rect>
				<rect x="20.692" y="62.736" width="5.832" height="1.223"></rect>
				<rect x="20.692" y="33.89" width="8.694" height="1.224"></rect>
				<rect x="20.692" y="35.95" width="11.594" height="1.224"></rect>
				<rect x="20.692" y="38.01" width="8.694" height="1.224"></rect>
				<rect x="20.692" y="40.071" width="8.694" height="1.224"></rect>
				<rect x="18.798" y="31.829" width="1.058" height="1.224"></rect>
				<rect x="18.798" y="33.89" width="1.058" height="1.224"></rect>
				<rect x="18.798" y="35.95" width="1.058" height="1.224"></rect>
				<rect x="18.798" y="38.01" width="1.058" height="1.224"></rect>
				<rect x="18.798" y="40.071" width="1.058" height="1.224"></rect>
				<rect x="18.798" y="42.131" width="1.058" height="1.224"></rect>
				<rect x="18.798" y="44.191" width="1.058" height="1.224"></rect>
				<rect x="18.798" y="46.252" width="1.058" height="1.224"></rect>
				<rect x="18.798" y="48.313" width="1.058" height="1.224"></rect>
				<rect x="18.798" y="50.373" width="1.058" height="1.223"></rect>
				<rect x="18.798" y="52.434" width="1.058" height="1.223"></rect>
				<rect x="18.798" y="54.494" width="1.058" height="1.223"></rect>
				<rect x="18.798" y="56.555" width="1.058" height="1.223"></rect>
				<rect x="18.798" y="58.613" width="1.058" height="1.225"></rect>
				<rect x="18.798" y="60.674" width="1.058" height="1.225"></rect>
				<rect x="18.798" y="62.736" width="1.058" height="1.223"></rect>
			</g>
		</g>
		<path id="def-2" d="M75.821,613.52 C75.821,624.412,84.722,633.431,95.732,633.431 L134.382,633.431 L134.382,624.881 C134.382,624.061,133.68,623.358,132.86,623.358 L95.732,623.358 C90.813,623.358,86.83,619.376,86.83,614.457 L86.83,564.445 C86.83,559.526,90.813,555.544,95.732,555.544 L132.86,555.544 C133.68,555.544,134.382,554.841,134.382,554.021 L134.382,545.471 L95.732,545.471 C84.722,545.471,75.821,554.373,75.821,565.382 L75.821,613.52 Z M184.16,634.251 C193.647,634.251,201.377,626.638,201.377,617.151 L201.377,591.149 C201.377,581.78,193.647,574.05,184.16,574.05 L168.699,574.05 C159.212,574.05,151.599,581.78,151.599,591.149 L151.599,617.151 C151.599,626.638,159.212,634.251,168.699,634.251 Z M168.699,583.771 L184.16,583.771 C188.025,583.771,191.187,586.933,191.187,590.681 L191.187,617.619 C191.187,621.484,188.025,624.647,184.16,624.647 L168.699,624.647 C164.834,624.647,161.789,621.484,161.789,617.619 L161.789,590.681 C161.789,586.933,164.834,583.771,168.699,583.771 Z M219.297,591.969 L219.297,616.331 C219.297,625.818,226.91,633.431,236.397,633.431 L264.272,633.431 C266.38,633.431,268.02,631.791,268.02,629.683 L268.02,545.589 L259.118,545.589 C258.416,545.589,257.83,546.174,257.83,546.877 L257.83,578.617 C256.425,576.626,253.497,574.869,249.749,574.869 L236.162,574.869 C226.675,574.869,219.297,582.482,219.297,591.969 Z M229.486,591.501 C229.486,587.636,232.532,584.591,236.397,584.591 L252.208,584.591 C255.136,584.942,257.596,587.402,257.83,590.564 L257.83,622.538 C257.83,623.241,257.244,623.71,256.542,623.71 L236.397,623.71 C232.532,623.71,229.486,620.665,229.486,616.799 Z M296.129,574.869 L287.228,574.869 L287.228,632.143 C287.228,632.845,287.814,633.431,288.516,633.431 L297.418,633.431 L297.418,576.041 C297.418,575.338,296.832,574.869,296.129,574.869 Z M296.129,548.634 L287.228,548.634 L287.228,558.238 C287.228,558.941,287.814,559.526,288.516,559.526 L297.418,559.526 L297.418,549.922 C297.418,549.219,296.832,548.634,296.129,548.634 Z M349.537,574.869 L324.473,574.869 C320.257,574.869,316.86,578.266,316.86,582.482 L316.86,633.431 L325.761,633.431 C326.464,633.431,327.05,632.845,327.05,632.143 L327.05,585.762 C327.05,585.059,327.635,584.473,328.338,584.473 L349.537,584.473 C353.403,584.473,356.448,587.636,356.448,591.384 L356.448,632.143 C356.448,632.845,357.033,633.431,357.736,633.431 L366.637,633.431 L366.637,591.969 C366.637,582.482,359.024,574.869,349.537,574.869 Z M423.676,645.377 C423.676,649.243,420.514,652.288,416.766,652.288 L390.179,652.288 C389.476,652.288,388.891,652.873,388.891,653.576 L388.891,662.009 L416.766,662.009 C426.136,662.009,433.866,654.396,433.866,644.909 L433.866,578.5 C433.866,576.509,432.226,574.752,430.118,574.752 L402.243,574.752 C391.116,574.752,385.143,582.014,385.143,591.384 L385.143,616.331 C385.143,625.701,390.648,633.431,401.54,633.431 L415.595,633.431 C419.343,633.431,422.505,630.854,423.676,628.746 L423.676,645.377 Z M395.333,591.384 C395.333,587.636,396.855,584.473,402.243,584.473 L422.388,584.473 C423.091,584.473,423.676,585.059,423.676,585.762 L423.676,617.736 C423.442,620.782,420.983,623.241,417.937,623.71 L401.774,623.71 C396.855,623.71,395.333,620.547,395.333,616.799 L395.333,591.384 Z M500.978,623.358 C500.158,623.358,499.455,623.944,499.455,624.881 L499.455,633.431 L544.313,633.431 C555.206,633.431,563.521,625.349,563.521,614.34 L563.521,601.808 C563.521,598.06,560.945,593.96,557.431,592.789 L512.456,577.915 C511.284,577.563,510.347,576.275,510.347,574.987 L510.347,563.626 C510.347,558.706,514.447,555.544,519.366,555.544 L559.539,555.544 C560.476,555.544,561.062,554.841,561.062,554.021 L561.062,545.471 L519.366,545.471 C508.356,545.471,499.455,552.148,499.455,563.157 L499.455,577.095 C499.455,580.843,502.383,584.825,505.897,585.996 L550.872,600.988 C552.043,601.339,552.98,602.628,552.98,603.799 L552.98,614.457 C552.98,619.376,549.232,623.358,544.313,623.358 L500.978,623.358 Z M629.813,616.917 L629.813,591.384 C629.813,579.789,622.083,574.869,612.713,574.869 L584.838,574.869 C582.729,574.869,581.09,576.509,581.09,578.5 L581.09,662.009 L589.991,662.009 C590.694,662.009,591.279,661.423,591.279,660.721 L591.279,629.683 C592.685,631.557,595.613,633.431,599.244,633.431 L612.713,633.431 C622.083,633.431,629.813,626.755,629.813,616.917 Z M619.623,616.799 C619.623,620.665,616.461,623.71,612.713,623.71 L596.901,623.71 C593.856,623.358,591.514,620.782,591.279,617.736 L591.279,585.762 C591.279,585.059,591.865,584.473,592.568,584.473 L612.713,584.473 C616.461,584.473,619.623,585.996,619.623,591.384 L619.623,616.799 Z M666.707,574.869 C663.076,574.869,660.148,576.626,658.742,578.617 L658.742,576.041 C658.742,575.338,658.157,574.869,657.454,574.869 L648.553,574.869 L648.553,632.143 C648.553,632.845,649.138,633.431,649.841,633.431 L658.742,633.431 L658.742,589.861 C658.977,587.05,661.202,584.591,664.364,584.591 L679.005,584.591 C679.707,584.591,680.293,584.005,680.293,583.302 L680.293,574.869 L666.707,574.869 Z M727.025,634.251 C736.512,634.251,744.242,626.638,744.242,617.151 L744.242,591.149 C744.242,581.78,736.512,574.05,727.025,574.05 L711.565,574.05 C702.078,574.05,694.465,581.78,694.465,591.149 L694.465,617.151 C694.465,626.638,702.078,634.251,711.565,634.251 Z M711.565,583.771 L727.025,583.771 C730.89,583.771,734.052,586.933,734.052,590.681 L734.052,617.619 C734.052,621.484,730.89,624.647,727.025,624.647 L711.565,624.647 C707.7,624.647,704.655,621.484,704.655,617.619 L704.655,590.681 C704.655,586.933,707.7,583.771,711.565,583.771 Z M763.216,574.752 L763.216,616.331 C763.216,625.818,770.829,633.431,780.316,633.431 L795.776,633.431 C805.263,633.431,812.993,625.818,812.993,616.331 L812.993,574.752 L804.092,574.752 C803.389,574.752,802.804,575.338,802.804,576.041 L802.804,616.799 C802.804,620.665,799.641,623.71,795.776,623.71 L780.316,623.71 C776.451,623.71,773.406,620.665,773.406,616.799 L773.406,576.041 C773.406,575.338,772.82,574.752,772.117,574.752 L763.216,574.752 Z M859.608,623.71 L849.067,623.71 C845.202,623.71,842.157,620.665,842.157,616.799 L842.157,584.591 L856.68,584.591 C857.383,584.591,857.969,584.122,857.969,583.419 L857.969,574.987 L845.554,574.987 C844.031,574.987,842.743,575.806,842.157,577.095 L842.157,547.814 C842.157,547.111,841.571,546.526,840.869,546.526 L831.967,546.526 L831.967,616.331 C831.967,625.818,839.697,633.431,849.067,633.431 L860.897,633.431 L860.897,624.998 C860.897,624.295,860.311,623.71,859.608,623.71 Z M877.762,602.042 L914.539,611.06 C915.125,611.178,915.593,611.646,915.593,612.232 L915.593,617.736 C915.593,621.601,912.197,623.827,908.332,623.827 L876.474,623.827 C875.771,623.827,875.186,624.412,875.186,625.115 L875.186,633.431 L908.332,633.431 C917.819,633.431,925.08,627.926,925.08,617.736 L925.08,607.312 C925.08,605.439,923.792,603.799,921.918,603.447 L885.727,594.897 C885.141,594.663,884.673,594.195,884.673,593.609 L884.673,590.213 C884.673,586.347,886.664,584.473,890.529,584.473 L921.332,584.473 C922.035,584.473,922.621,583.888,922.621,583.185 L922.621,574.869 L890.529,574.869 C881.042,574.869,874.483,580.843,874.483,590.33 L874.483,598.177 C874.483,600.051,875.889,601.691,877.762,602.042 Z"></path>
		<path id="def-3" d="M208.539,725.017 L205.962,725.017 Q203.526,725.017,202.472,724.009 Q201.418,723.002,201.324,721.503 L201.324,721.503 Q200.809,723.096,199.146,724.29 Q197.482,725.485,194.344,725.485 L194.344,725.485 Q192.516,725.485,190.783,724.759 Q189.05,724.033,187.691,722.346 Q186.332,720.66,185.512,717.849 Q184.693,715.038,184.693,710.868 L184.693,710.868 Q184.693,709.275,184.88,707.19 Q185.067,705.106,185.653,702.927 Q186.239,700.749,187.34,698.664 Q188.441,696.579,190.244,694.939 Q192.048,693.3,194.671,692.292 Q197.295,691.285,200.949,691.285 L200.949,691.285 Q203.339,691.285,205.236,691.801 Q207.133,692.316,208.469,693.253 Q209.804,694.19,210.53,695.548 Q211.256,696.907,211.256,698.594 L211.256,698.594 Q211.256,701.311,209.476,702.693 Q207.696,704.075,204.463,704.075 L204.463,704.075 Q203.432,704.075,203.221,703.911 Q203.011,703.747,202.964,703.232 L202.964,703.232 Q202.87,702.388,202.847,701.545 Q202.823,700.702,202.612,699.999 Q202.402,699.296,201.886,698.875 Q201.371,698.453,200.247,698.453 L200.247,698.453 Q197.951,698.453,196.592,699.765 Q195.234,701.077,194.531,702.951 Q193.828,704.825,193.641,706.816 Q193.453,708.807,193.453,710.165 L193.453,710.165 Q193.453,712.414,193.734,713.937 Q194.016,715.459,194.554,716.42 Q195.093,717.38,195.843,717.778 Q196.592,718.177,197.576,718.177 L197.576,718.177 Q199.356,718.177,200.574,717.427 Q201.793,716.677,202.027,714.71 L202.027,714.71 L202.308,712.086 Q202.448,710.728,202.683,709.861 Q202.917,708.994,203.807,708.994 L203.807,708.994 L206.384,708.994 Q207.555,708.994,208.281,709.252 Q209.007,709.51,209.406,710.095 Q209.804,710.681,209.944,711.618 Q210.085,712.555,210.085,713.913 L210.085,713.913 Q210.085,714.85,210.015,716.396 Q209.944,717.942,209.827,719.535 Q209.71,721.128,209.57,722.463 Q209.429,723.799,209.335,724.314 L209.335,724.314 Q209.242,724.736,209.101,724.876 Q208.96,725.017,208.539,725.017 L208.539,725.017 Z M234.962,710.447 L234.962,710.447 Q234.681,710.447,234.329,710.423 Q233.978,710.4,233.65,710.329 Q233.322,710.259,233.088,710.142 Q232.854,710.025,232.854,709.837 L232.854,709.837 Q232.854,709.228,232.9,708.713 Q232.947,708.198,232.947,707.636 L232.947,707.636 Q232.947,706.605,232.666,705.949 Q232.385,705.293,231.542,705.293 L231.542,705.293 Q230.23,705.293,229.363,707.003 Q228.497,708.713,228.262,712.133 L228.262,712.133 Q228.169,713.632,228.005,715.53 Q227.841,717.427,227.7,719.184 Q227.56,720.941,227.466,722.299 Q227.372,723.658,227.372,724.08 L227.372,724.08 Q227.372,724.548,227.044,724.782 Q226.716,725.017,226.342,725.017 L226.342,725.017 L224.655,725.017 Q223.203,725.017,222.289,724.712 Q221.376,724.408,220.837,723.845 Q220.298,723.283,220.087,722.463 Q219.876,721.643,219.876,720.566 L219.876,720.566 Q219.876,719.863,219.947,718.575 Q220.017,717.286,220.204,715.014 Q220.392,712.742,220.649,709.252 Q220.907,705.762,221.282,700.608 L221.282,700.608 Q221.376,699.25,222.266,699.25 L222.266,699.25 L224.093,699.25 Q225.405,699.25,226.295,699.531 Q227.185,699.812,227.747,700.304 Q228.309,700.796,228.567,701.451 Q228.825,702.107,228.918,702.81 L228.918,702.81 Q229.48,701.733,230.253,700.96 Q231.026,700.187,231.87,699.695 Q232.713,699.203,233.603,698.992 Q234.493,698.781,235.243,698.781 L235.243,698.781 Q236.133,698.781,237.047,699.109 Q237.96,699.437,238.71,700.093 Q239.459,700.749,239.904,701.779 Q240.349,702.81,240.349,704.216 L240.349,704.216 Q240.349,705.48,239.975,706.605 Q239.6,707.729,238.897,708.596 Q238.194,709.463,237.187,709.955 Q236.18,710.447,234.962,710.447 Z M257.918,725.485 L257.918,725.485 Q254.685,725.485,252.554,724.572 Q250.422,723.658,249.157,722.065 Q247.892,720.472,247.377,718.341 Q246.862,716.209,246.862,713.773 L246.862,713.773 Q246.862,710.962,247.541,708.268 Q248.22,705.574,249.86,703.466 Q251.5,701.358,254.193,700.069 Q256.887,698.781,260.916,698.781 L260.916,698.781 Q266.819,698.781,269.373,701.662 Q271.926,704.544,271.926,709.744 L271.926,709.744 Q271.926,711.196,271.715,712.953 Q271.504,714.71,270.919,716.443 Q270.333,718.177,269.326,719.816 Q268.318,721.456,266.772,722.721 Q265.226,723.986,263.048,724.736 Q260.869,725.485,257.918,725.485 Z M260.12,705.012 L260.12,705.012 Q258.34,705.012,257.285,705.926 Q256.231,706.839,255.693,708.127 Q255.154,709.416,254.99,710.845 Q254.826,712.274,254.826,713.257 L254.826,713.257 Q254.826,716.35,255.81,717.802 Q256.794,719.254,258.621,719.254 L258.621,719.254 Q260.26,719.254,261.314,718.223 Q262.369,717.193,262.954,715.74 Q263.54,714.288,263.751,712.695 Q263.961,711.102,263.961,710.025 L263.961,710.025 Q263.961,707.682,263.095,706.347 Q262.228,705.012,260.12,705.012 Z M305.376,720.004 L305.376,720.004 Q305.985,716.584,306.43,714.03 Q306.875,711.477,307.18,709.603 Q307.484,707.729,307.695,706.371 Q307.906,705.012,308.07,703.958 Q308.234,702.904,308.351,702.084 Q308.468,701.264,308.609,700.374 L308.609,700.374 Q308.702,699.859,309.101,699.577 Q309.499,699.296,310.623,699.296 L310.623,699.296 Q311.232,699.296,312.333,699.367 Q313.434,699.437,314.512,699.718 Q315.589,699.999,316.362,700.585 Q317.135,701.17,317.135,702.201 L317.135,702.201 Q317.135,702.951,316.714,704.426 Q316.292,705.902,315.636,707.823 Q314.98,709.744,314.137,711.922 Q313.294,714.101,312.427,716.232 Q311.56,718.364,310.764,720.285 Q309.967,722.206,309.405,723.611 L309.405,723.611 Q309.03,724.454,308.679,724.736 Q308.328,725.017,307.438,725.017 L307.438,725.017 L304.673,725.017 Q303.362,725.017,302.518,724.689 Q301.675,724.361,301.16,723.799 Q300.644,723.236,300.363,722.51 Q300.082,721.784,299.942,720.941 L299.942,720.941 Q299.473,718.551,298.958,714.522 Q298.443,710.493,298.021,705.012 L298.021,705.012 Q297.787,706.043,297.482,707.776 Q297.178,709.51,296.826,711.524 Q296.475,713.539,296.1,715.647 Q295.725,717.755,295.397,719.559 Q295.069,721.362,294.788,722.651 Q294.507,723.939,294.32,724.314 L294.32,724.314 Q294.086,724.782,293.734,724.899 Q293.383,725.017,292.727,725.017 L292.727,725.017 L289.447,725.017 Q288.229,725.017,287.363,724.665 Q286.496,724.314,285.863,723.752 Q285.231,723.189,284.833,722.463 Q284.435,721.737,284.247,720.941 L284.247,720.941 Q281.67,710.915,280.382,705.808 Q279.094,700.702,279.094,700.327 L279.094,700.327 Q279.094,699.905,279.515,699.577 Q279.937,699.25,280.593,699.25 L280.593,699.25 Q282.607,699.25,284.06,699.414 Q285.512,699.577,286.473,699.999 Q287.433,700.421,287.948,701.17 Q288.464,701.92,288.604,703.138 L288.604,703.138 Q288.651,703.794,288.792,705.808 Q288.932,707.823,289.096,710.376 Q289.26,712.93,289.424,715.553 Q289.588,718.177,289.729,720.004 L289.729,720.004 Q290.291,717.099,290.642,715.366 Q290.993,713.632,291.228,712.461 Q291.462,711.29,291.626,710.4 Q291.79,709.51,292.024,708.291 Q292.258,707.073,292.563,705.246 Q292.867,703.419,293.43,700.374 L293.43,700.374 Q293.617,699.25,295.913,699.25 L295.913,699.25 Q297.365,699.25,298.63,699.343 Q299.895,699.437,300.879,699.788 Q301.863,700.14,302.565,700.819 Q303.268,701.498,303.549,702.67 L303.549,702.67 Q303.643,702.997,303.713,703.325 Q303.783,703.653,303.877,704.262 Q303.971,704.871,304.088,705.949 Q304.205,707.027,304.369,708.854 Q304.533,710.681,304.767,713.398 Q305.001,716.115,305.376,720.004 Z M352.132,725.017 L349.555,725.017 Q346.744,725.017,345.713,723.916 Q344.683,722.815,344.683,720.519 L344.683,720.519 Q344.683,719.723,344.776,717.942 Q344.87,716.162,345.198,712.414 L345.198,712.414 Q344.823,711.711,344.542,711.196 Q344.261,710.681,343.98,710.119 Q343.699,709.556,343.371,708.807 Q343.043,708.057,342.528,706.933 L342.528,706.933 Q341.731,705.199,340.724,702.904 Q339.717,700.608,338.78,698.477 Q337.843,696.345,337.21,694.705 Q336.578,693.065,336.578,692.644 L336.578,692.644 Q336.578,691.66,339.717,691.66 L339.717,691.66 Q341.684,691.66,342.879,692.058 Q344.074,692.456,344.823,693.136 Q345.573,693.815,345.948,694.729 Q346.322,695.642,346.65,696.673 L346.65,696.673 Q347.072,698.031,347.259,698.687 Q347.447,699.343,347.564,699.765 Q347.681,700.187,347.822,700.585 Q347.962,700.983,348.22,701.826 Q348.477,702.67,348.946,704.169 Q349.414,705.668,350.258,708.291 L350.258,708.291 Q351.616,705.434,352.436,703.653 Q353.256,701.873,353.865,700.35 Q354.474,698.828,355.013,697.212 Q355.552,695.595,356.395,693.112 L356.395,693.112 Q356.676,692.222,356.981,691.964 Q357.285,691.707,357.941,691.707 L357.941,691.707 Q358.175,691.707,359.229,691.777 Q360.283,691.847,361.431,692.128 Q362.579,692.41,363.516,693.019 Q364.453,693.628,364.453,694.658 L364.453,694.658 Q364.453,695.455,363.914,696.907 Q363.376,698.359,362.509,700.163 Q361.642,701.967,360.494,703.981 Q359.347,705.996,358.128,707.917 Q356.91,709.837,355.716,711.454 Q354.521,713.07,353.537,714.101 L353.537,714.101 Q353.49,715.225,353.42,716.771 Q353.35,718.317,353.233,719.84 Q353.116,721.362,353.022,722.604 Q352.928,723.845,352.881,724.314 L352.881,724.314 Q352.834,724.689,352.694,724.853 Q352.553,725.017,352.132,725.017 L352.132,725.017 Z M379.445,725.485 L379.445,725.485 Q376.212,725.485,374.081,724.572 Q371.949,723.658,370.684,722.065 Q369.419,720.472,368.904,718.341 Q368.388,716.209,368.388,713.773 L368.388,713.773 Q368.388,710.962,369.068,708.268 Q369.747,705.574,371.387,703.466 Q373.026,701.358,375.72,700.069 Q378.414,698.781,382.443,698.781 L382.443,698.781 Q388.346,698.781,390.899,701.662 Q393.453,704.544,393.453,709.744 L393.453,709.744 Q393.453,711.196,393.242,712.953 Q393.031,714.71,392.445,716.443 Q391.86,718.177,390.853,719.816 Q389.845,721.456,388.299,722.721 Q386.753,723.986,384.575,724.736 Q382.396,725.485,379.445,725.485 Z M381.647,705.012 L381.647,705.012 Q379.866,705.012,378.812,705.926 Q377.758,706.839,377.219,708.127 Q376.681,709.416,376.517,710.845 Q376.353,712.274,376.353,713.257 L376.353,713.257 Q376.353,716.35,377.337,717.802 Q378.32,719.254,380.148,719.254 L380.148,719.254 Q381.787,719.254,382.841,718.223 Q383.896,717.193,384.481,715.74 Q385.067,714.288,385.278,712.695 Q385.488,711.102,385.488,710.025 L385.488,710.025 Q385.488,707.682,384.622,706.347 Q383.755,705.012,381.647,705.012 Z M411.068,703.232 L411.068,703.232 Q411.068,704.216,410.904,705.996 Q410.74,707.776,410.576,709.697 Q410.412,711.618,410.248,713.304 Q410.084,714.991,410.084,715.74 L410.084,715.74 Q410.084,717.38,410.904,718.294 Q411.724,719.207,413.176,719.207 L413.176,719.207 Q414.441,719.207,415.308,718.2 Q416.175,717.193,416.713,715.576 Q417.252,713.96,417.58,711.899 Q417.908,709.837,418.072,707.729 Q418.236,705.621,418.353,703.63 Q418.47,701.639,418.611,700.187 L418.611,700.187 Q418.658,699.812,418.892,699.531 Q419.126,699.25,419.641,699.25 L419.641,699.25 L421.328,699.25 Q422.78,699.25,423.694,699.554 Q424.607,699.859,425.146,700.421 Q425.685,700.983,425.896,701.803 Q426.107,702.623,426.107,703.7 L426.107,703.7 Q426.107,704.403,426.036,705.691 Q425.966,706.98,425.779,709.252 Q425.591,711.524,425.334,715.014 Q425.076,718.505,424.701,723.658 L424.701,723.658 Q424.607,724.642,424.49,724.829 Q424.373,725.017,423.717,725.017 L423.717,725.017 L421.89,725.017 Q420.485,725.017,419.571,724.689 Q418.658,724.361,418.095,723.845 Q417.533,723.33,417.299,722.627 Q417.065,721.925,417.018,721.175 L417.018,721.175 Q416.315,722.393,415.448,723.236 Q414.582,724.08,413.645,724.572 Q412.708,725.063,411.724,725.274 Q410.74,725.485,409.803,725.485 L409.803,725.485 Q408.023,725.485,406.617,724.899 Q405.212,724.314,404.251,723.33 Q403.291,722.346,402.776,720.988 Q402.26,719.629,402.26,718.083 L402.26,718.083 Q402.26,717.474,402.331,716.092 Q402.401,714.71,402.518,712.976 Q402.635,711.243,402.776,709.299 Q402.916,707.354,403.033,705.621 Q403.151,703.888,403.268,702.576 Q403.385,701.264,403.432,700.702 L403.432,700.702 Q403.525,699.859,403.806,699.554 Q404.088,699.25,404.743,699.25 L404.743,699.25 L406.243,699.25 Q407.695,699.25,408.632,699.531 Q409.569,699.812,410.108,700.327 Q410.646,700.842,410.857,701.569 Q411.068,702.295,411.068,703.232 Z M450.515,710.447 L450.515,710.447 Q450.234,710.447,449.883,710.423 Q449.531,710.4,449.203,710.329 Q448.875,710.259,448.641,710.142 Q448.407,710.025,448.407,709.837 L448.407,709.837 Q448.407,709.228,448.454,708.713 Q448.501,708.198,448.501,707.636 L448.501,707.636 Q448.501,706.605,448.219,705.949 Q447.938,705.293,447.095,705.293 L447.095,705.293 Q445.783,705.293,444.917,707.003 Q444.05,708.713,443.816,712.133 L443.816,712.133 Q443.722,713.632,443.558,715.53 Q443.394,717.427,443.253,719.184 Q443.113,720.941,443.019,722.299 Q442.926,723.658,442.926,724.08 L442.926,724.08 Q442.926,724.548,442.598,724.782 Q442.27,725.017,441.895,725.017 L441.895,725.017 L440.208,725.017 Q438.756,725.017,437.842,724.712 Q436.929,724.408,436.39,723.845 Q435.851,723.283,435.64,722.463 Q435.43,721.643,435.43,720.566 L435.43,720.566 Q435.43,719.863,435.5,718.575 Q435.57,717.286,435.758,715.014 Q435.945,712.742,436.203,709.252 Q436.46,705.762,436.835,700.608 L436.835,700.608 Q436.929,699.25,437.819,699.25 L437.819,699.25 L439.646,699.25 Q440.958,699.25,441.848,699.531 Q442.738,699.812,443.3,700.304 Q443.863,700.796,444.12,701.451 Q444.378,702.107,444.472,702.81 L444.472,702.81 Q445.034,701.733,445.807,700.96 Q446.58,700.187,447.423,699.695 Q448.266,699.203,449.156,698.992 Q450.047,698.781,450.796,698.781 L450.796,698.781 Q451.686,698.781,452.6,699.109 Q453.513,699.437,454.263,700.093 Q455.013,700.749,455.458,701.779 Q455.903,702.81,455.903,704.216 L455.903,704.216 Q455.903,705.48,455.528,706.605 Q455.153,707.729,454.45,708.596 Q453.748,709.463,452.74,709.955 Q451.733,710.447,450.515,710.447 Z M491.789,718.177 L491.789,718.177 Q493.71,718.177,495.045,717.614 Q496.38,717.052,497.317,716.35 Q498.254,715.647,498.981,715.085 Q499.707,714.522,500.456,714.522 L500.456,714.522 Q501.393,714.522,501.393,715.928 L501.393,715.928 Q501.393,716.677,501.206,717.732 Q501.019,718.786,500.691,720.097 L500.691,720.097 Q500.503,720.894,499.777,721.831 Q499.051,722.768,497.786,723.588 Q496.521,724.408,494.67,724.946 Q492.82,725.485,490.431,725.485 L490.431,725.485 Q488.041,725.485,485.652,724.782 Q483.263,724.08,481.389,722.393 Q479.515,720.706,478.344,717.849 Q477.172,714.991,477.172,710.681 L477.172,710.681 Q477.172,709.135,477.383,707.097 Q477.594,705.059,478.203,702.904 Q478.812,700.749,479.913,698.664 Q481.014,696.579,482.747,694.939 Q484.481,693.3,486.987,692.292 Q489.494,691.285,492.96,691.285 L492.96,691.285 Q495.725,691.285,497.763,691.941 Q499.8,692.597,501.136,693.745 Q502.471,694.893,503.103,696.439 Q503.736,697.985,503.736,699.718 L503.736,699.718 Q503.736,702.716,501.979,704.098 Q500.222,705.48,496.99,705.48 L496.99,705.48 Q495.959,705.48,495.701,705.317 Q495.443,705.153,495.443,704.637 L495.443,704.637 Q495.397,703.044,495.35,701.873 Q495.303,700.702,495.022,699.929 Q494.741,699.156,494.155,698.804 Q493.57,698.453,492.539,698.453 L492.539,698.453 Q491.04,698.453,489.986,699.086 Q488.931,699.718,488.205,700.725 Q487.479,701.733,487.034,702.997 Q486.589,704.262,486.331,705.574 Q486.074,706.886,486.003,708.104 Q485.933,709.322,485.933,710.212 L485.933,710.212 Q485.933,714.522,487.362,716.35 Q488.791,718.177,491.789,718.177 Z M521.492,725.485 L521.492,725.485 Q518.259,725.485,516.127,724.572 Q513.996,723.658,512.731,722.065 Q511.466,720.472,510.951,718.341 Q510.435,716.209,510.435,713.773 L510.435,713.773 Q510.435,710.962,511.115,708.268 Q511.794,705.574,513.434,703.466 Q515.073,701.358,517.767,700.069 Q520.461,698.781,524.49,698.781 L524.49,698.781 Q530.393,698.781,532.946,701.662 Q535.5,704.544,535.5,709.744 L535.5,709.744 Q535.5,711.196,535.289,712.953 Q535.078,714.71,534.492,716.443 Q533.907,718.177,532.899,719.816 Q531.892,721.456,530.346,722.721 Q528.8,723.986,526.622,724.736 Q524.443,725.485,521.492,725.485 Z M523.694,705.012 L523.694,705.012 Q521.913,705.012,520.859,705.926 Q519.805,706.839,519.266,708.127 Q518.728,709.416,518.564,710.845 Q518.4,712.274,518.4,713.257 L518.4,713.257 Q518.4,716.35,519.383,717.802 Q520.367,719.254,522.194,719.254 L522.194,719.254 Q523.834,719.254,524.888,718.223 Q525.942,717.193,526.528,715.74 Q527.114,714.288,527.324,712.695 Q527.535,711.102,527.535,710.025 L527.535,710.025 Q527.535,707.682,526.669,706.347 Q525.802,705.012,523.694,705.012 Z M552.74,725.485 L552.74,725.485 Q550.913,725.485,549.25,724.829 Q547.587,724.173,546.345,722.768 Q545.104,721.362,544.378,719.207 Q543.651,717.052,543.651,714.007 L543.651,714.007 Q543.651,712.648,543.839,710.985 Q544.026,709.322,544.495,707.636 Q544.963,705.949,545.806,704.356 Q546.65,702.763,547.938,701.522 Q549.226,700.28,551.03,699.531 Q552.834,698.781,555.27,698.781 L555.27,698.781 Q557.612,698.781,559.041,699.601 Q560.47,700.421,560.845,702.435 L560.845,702.435 Q560.939,700.608,561.032,699.25 Q561.126,697.891,561.196,696.72 Q561.267,695.548,561.36,694.377 Q561.454,693.206,561.548,691.707 L561.548,691.707 Q561.595,690.676,561.782,690.489 L561.782,690.489 Q561.876,690.395,562.016,690.372 Q562.157,690.348,562.532,690.348 L562.532,690.348 L564.359,690.348 Q565.764,690.348,566.701,690.676 Q567.638,691.004,568.2,691.566 Q568.763,692.128,568.997,692.855 Q569.231,693.581,569.231,694.377 L569.231,694.377 Q569.231,694.377,569.137,695.548 Q569.044,696.72,568.903,698.664 Q568.763,700.608,568.575,703.091 Q568.388,705.574,568.2,708.221 Q568.013,710.868,567.826,713.468 Q567.638,716.068,567.451,718.247 Q567.263,720.425,567.146,721.995 Q567.029,723.564,566.982,724.08 L566.982,724.08 Q566.889,724.642,566.748,724.829 Q566.607,725.017,565.952,725.017 L565.952,725.017 L564.265,725.017 Q563.281,725.017,562.414,724.853 Q561.548,724.689,560.915,724.29 Q560.283,723.892,559.931,723.213 Q559.58,722.534,559.58,721.456 L559.58,721.456 Q558.737,723.236,557.027,724.361 Q555.317,725.485,552.74,725.485 Z M556.816,705.012 L556.816,705.012 Q554.427,705.012,553.279,707.097 Q552.131,709.182,552.131,712.695 L552.131,712.695 Q552.131,713.913,552.295,715.085 Q552.459,716.256,552.881,717.193 Q553.302,718.13,554.028,718.692 Q554.755,719.254,555.879,719.254 L555.879,719.254 Q557.894,719.254,559.252,717.286 Q560.611,715.319,560.611,711.102 L560.611,711.102 Q560.611,709.931,560.47,708.83 Q560.33,707.729,559.908,706.886 Q559.486,706.043,558.737,705.527 Q557.987,705.012,556.816,705.012 Z M584.316,725.017 L582.63,725.017 Q581.178,725.017,580.264,724.712 Q579.35,724.408,578.812,723.845 Q578.273,723.283,578.062,722.463 Q577.851,721.643,577.851,720.566 L577.851,720.566 Q577.851,719.863,577.922,718.575 Q577.992,717.286,578.179,715.014 Q578.367,712.742,578.624,709.252 Q578.882,705.762,579.257,700.608 L579.257,700.608 Q579.304,699.577,579.491,699.39 L579.491,699.39 Q579.632,699.25,580.241,699.25 L580.241,699.25 L582.068,699.25 Q583.52,699.25,584.434,699.531 Q585.347,699.812,585.886,700.374 Q586.425,700.936,586.636,701.733 Q586.846,702.529,586.846,703.513 L586.846,703.513 Q586.846,704.216,586.753,705.621 Q586.659,707.027,586.495,709.439 Q586.331,711.852,586.05,715.436 Q585.769,719.02,585.347,724.08 L585.347,724.08 Q585.3,724.642,585.113,724.829 Q584.926,725.017,584.316,725.017 L584.316,725.017 Z M579.304,693.721 L579.304,693.721 Q579.304,691.847,580.662,690.77 Q582.021,689.692,584.316,689.692 L584.316,689.692 Q586.331,689.692,587.245,690.512 Q588.158,691.332,588.158,692.691 L588.158,692.691 Q588.158,694.424,586.87,695.572 Q585.581,696.72,583.098,696.72 L583.098,696.72 Q579.304,696.72,579.304,693.721 Z M612.098,720.894 L612.098,720.894 Q612.098,719.863,612.262,718.2 Q612.426,716.537,612.59,714.686 Q612.754,712.836,612.918,711.102 Q613.082,709.369,613.082,708.198 L613.082,708.198 Q613.082,706.98,612.496,706.019 Q611.911,705.059,610.224,705.059 L610.224,705.059 Q608.584,705.059,607.507,705.855 Q606.429,706.652,605.703,708.76 Q604.977,710.868,604.509,714.569 Q604.04,718.27,603.618,724.08 L603.618,724.08 Q603.572,724.642,603.384,724.829 Q603.197,725.017,602.588,725.017 L602.588,725.017 L600.901,725.017 Q599.449,725.017,598.535,724.712 Q597.622,724.408,597.083,723.845 Q596.544,723.283,596.333,722.463 Q596.122,721.643,596.122,720.566 L596.122,720.566 Q596.122,719.863,596.193,718.575 Q596.263,717.286,596.45,715.014 Q596.638,712.742,596.896,709.252 Q597.153,705.762,597.528,700.608 L597.528,700.608 Q597.575,699.577,597.762,699.39 L597.762,699.39 Q597.903,699.25,598.512,699.25 L598.512,699.25 L600.339,699.25 Q601.744,699.25,602.658,699.577 Q603.572,699.905,604.134,700.444 Q604.696,700.983,604.93,701.709 Q605.164,702.435,605.211,703.185 L605.211,703.185 Q606.664,700.702,608.538,699.741 Q610.412,698.781,613.222,698.781 L613.222,698.781 Q615.19,698.781,616.642,699.203 Q618.095,699.624,619.055,700.632 Q620.016,701.639,620.484,703.255 Q620.953,704.871,620.953,707.261 L620.953,707.261 Q620.953,708.01,620.859,709.416 Q620.765,710.821,620.625,712.484 Q620.484,714.148,620.32,715.951 Q620.156,717.755,620.016,719.301 Q619.875,720.847,619.781,722.018 Q619.688,723.189,619.688,723.564 L619.688,723.564 Q619.688,724.595,619.453,724.806 Q619.219,725.017,618.423,725.017 L618.423,725.017 L616.924,725.017 Q615.424,725.017,614.487,724.736 Q613.55,724.454,613.035,723.939 Q612.52,723.424,612.309,722.651 Q612.098,721.878,612.098,720.894 Z M645.595,719.488 L645.595,719.488 Q644.424,721.597,642.737,722.604 Q641.051,723.611,638.521,723.611 L638.521,723.611 Q636.6,723.611,635.007,723.002 Q633.414,722.393,632.29,721.081 Q631.166,719.77,630.533,717.778 Q629.901,715.787,629.901,713.023 L629.901,713.023 Q629.901,710.774,630.369,708.268 Q630.838,705.762,632.079,703.653 Q633.321,701.545,635.476,700.163 Q637.631,698.781,641.004,698.781 L641.004,698.781 Q642.41,698.781,643.417,699.086 Q644.424,699.39,645.15,699.905 Q645.876,700.421,646.321,701.124 Q646.766,701.826,647.001,702.623 L647.001,702.623 Q647.001,702.67,647.024,702.271 Q647.048,701.873,647.094,701.358 Q647.141,700.842,647.165,700.35 Q647.188,699.859,647.188,699.718 L647.188,699.718 Q647.235,699.25,647.797,699.25 L647.797,699.25 L649.952,699.25 Q652.388,699.25,653.489,700.257 Q654.59,701.264,654.59,704.075 L654.59,704.075 Q654.59,704.45,654.543,705.785 Q654.497,707.12,654.379,708.994 Q654.262,710.868,654.075,713.14 Q653.888,715.413,653.653,717.708 Q653.419,720.004,653.138,722.112 Q652.857,724.22,652.529,725.813 L652.529,725.813 Q652.201,727.406,651.405,728.905 Q650.608,730.404,649.156,731.576 Q647.703,732.747,645.431,733.449 Q643.159,734.152,639.88,734.152 L639.88,734.152 Q637.397,734.152,635.546,733.684 Q633.696,733.215,632.477,732.442 Q631.259,731.669,630.627,730.685 Q629.994,729.702,629.994,728.718 L629.994,728.718 Q629.994,727.828,630.369,727.172 Q630.744,726.516,631.353,726.094 Q631.962,725.673,632.688,725.462 Q633.414,725.251,634.07,725.251 L634.07,725.251 Q634.867,725.251,635.242,725.719 Q635.616,726.188,636.085,726.773 Q636.553,727.359,637.397,727.828 Q638.24,728.296,640.02,728.296 L640.02,728.296 Q643.112,728.296,644.354,726.024 Q645.595,723.752,645.595,719.488 Z M641.66,717.38 L641.66,717.38 Q643.347,717.38,644.307,716.584 Q645.267,715.787,645.783,714.663 Q646.298,713.539,646.439,712.32 Q646.579,711.102,646.579,710.212 L646.579,710.212 Q646.579,707.401,645.712,706.207 Q644.846,705.012,643.112,705.012 L643.112,705.012 Q641.379,705.012,640.395,705.949 Q639.411,706.886,638.919,708.174 Q638.427,709.463,638.287,710.751 Q638.146,712.039,638.146,712.742 L638.146,712.742 Q638.146,715.085,638.943,716.232 Q639.739,717.38,641.66,717.38 Z M692.445,691.285 L692.445,691.285 Q696.848,691.285,698.98,693.206 Q701.112,695.127,701.112,698.219 L701.112,698.219 Q701.112,700.842,699.659,702.224 Q698.207,703.607,695.49,703.607 L695.49,703.607 Q694.646,703.607,694.412,703.443 Q694.178,703.279,694.178,702.763 L694.178,702.763 Q694.178,702.295,694.108,701.545 Q694.037,700.796,693.756,700.093 Q693.475,699.39,692.866,698.898 Q692.257,698.406,691.18,698.406 L691.18,698.406 Q689.68,698.406,688.509,699.32 Q687.338,700.233,687.338,701.686 L687.338,701.686 Q687.338,702.951,688.298,703.747 Q689.259,704.544,690.711,705.223 Q692.163,705.902,693.873,706.605 Q695.583,707.308,697.036,708.455 Q698.488,709.603,699.448,711.313 Q700.409,713.023,700.409,715.647 L700.409,715.647 Q700.409,717.708,699.73,719.512 Q699.05,721.316,697.715,722.651 Q696.38,723.986,694.342,724.736 Q692.304,725.485,689.587,725.485 L689.587,725.485 Q687.244,725.485,685.253,724.97 Q683.262,724.454,681.786,723.681 Q680.311,722.908,679.467,721.995 Q678.624,721.081,678.624,720.332 L678.624,720.332 Q678.624,717.24,678.975,715.881 Q679.327,714.522,680.264,714.522 L680.264,714.522 Q680.92,714.522,681.646,715.085 Q682.372,715.647,683.309,716.35 Q684.246,717.052,685.487,717.614 Q686.729,718.177,688.369,718.177 L688.369,718.177 Q689.025,718.177,689.657,718.06 Q690.289,717.942,690.781,717.661 Q691.273,717.38,691.578,716.912 Q691.882,716.443,691.882,715.787 L691.882,715.787 Q691.882,714.616,690.992,713.913 Q690.102,713.211,688.743,712.625 Q687.385,712.039,685.815,711.407 Q684.246,710.774,682.887,709.673 Q681.529,708.573,680.639,706.839 Q679.748,705.106,679.748,702.388 L679.748,702.388 Q679.748,699.343,680.896,697.235 Q682.044,695.127,683.848,693.792 Q685.651,692.456,687.924,691.871 Q690.196,691.285,692.445,691.285 Z M731.845,721.222 L731.845,721.222 Q731.845,721.456,731.61,722.159 Q731.376,722.862,730.861,723.611 Q730.346,724.361,729.573,724.923 Q728.8,725.485,727.722,725.485 L727.722,725.485 Q726.457,725.485,725.216,724.642 Q723.974,723.799,722.756,722.346 Q721.538,720.894,720.296,718.903 Q719.055,716.912,717.79,714.569 L717.79,714.569 Q717.603,717.052,717.415,719.442 Q717.228,721.831,717.04,724.08 L717.04,724.08 Q716.994,724.642,716.806,724.829 Q716.619,725.017,716.01,725.017 L716.01,725.017 L714.323,725.017 Q712.871,725.017,711.934,724.712 Q710.997,724.408,710.481,723.845 Q709.966,723.283,709.755,722.416 Q709.544,721.55,709.544,720.425 L709.544,720.425 Q709.544,719.863,709.591,719.254 Q709.638,718.645,709.732,717.521 Q709.826,716.396,709.99,714.569 Q710.154,712.742,710.388,709.744 Q710.622,706.745,710.927,702.365 Q711.231,697.985,711.606,691.707 L711.606,691.707 Q711.653,690.676,711.84,690.489 L711.84,690.489 Q711.981,690.348,712.59,690.348 L712.59,690.348 L714.417,690.348 Q715.869,690.348,716.806,690.676 Q717.743,691.004,718.305,691.566 Q718.867,692.128,719.078,692.878 Q719.289,693.628,719.289,694.424 L719.289,694.424 Q719.289,694.893,719.219,695.994 Q719.149,697.094,719.055,698.664 Q718.961,700.233,718.797,702.201 Q718.633,704.169,718.493,706.324 L718.493,706.324 L725.989,699.484 Q726.41,699.109,726.762,698.968 Q727.113,698.828,727.3,698.828 L727.3,698.828 Q727.816,698.828,728.425,699.484 Q729.034,700.14,729.573,701.006 Q730.111,701.873,730.463,702.787 Q730.814,703.7,730.814,704.262 L730.814,704.262 Q730.814,705.621,728.636,707.12 Q726.457,708.619,722.053,710.493 L722.053,710.493 Q724.021,712.695,725.801,714.522 Q727.581,716.35,728.917,717.755 Q730.252,719.16,731.048,720.051 Q731.845,720.941,731.845,721.222 Z M746.509,725.017 L744.822,725.017 Q743.37,725.017,742.456,724.712 Q741.543,724.408,741.004,723.845 Q740.465,723.283,740.254,722.463 Q740.043,721.643,740.043,720.566 L740.043,720.566 Q740.043,719.863,740.114,718.575 Q740.184,717.286,740.371,715.014 Q740.559,712.742,740.816,709.252 Q741.074,705.762,741.449,700.608 L741.449,700.608 Q741.496,699.577,741.683,699.39 L741.683,699.39 Q741.824,699.25,742.433,699.25 L742.433,699.25 L744.26,699.25 Q745.712,699.25,746.626,699.531 Q747.539,699.812,748.078,700.374 Q748.617,700.936,748.828,701.733 Q749.038,702.529,749.038,703.513 L749.038,703.513 Q749.038,704.216,748.945,705.621 Q748.851,707.027,748.687,709.439 Q748.523,711.852,748.242,715.436 Q747.961,719.02,747.539,724.08 L747.539,724.08 Q747.492,724.642,747.305,724.829 Q747.118,725.017,746.509,725.017 L746.509,725.017 Z M741.496,693.721 L741.496,693.721 Q741.496,691.847,742.854,690.77 Q744.213,689.692,746.509,689.692 L746.509,689.692 Q748.523,689.692,749.437,690.512 Q750.35,691.332,750.35,692.691 L750.35,692.691 Q750.35,694.424,749.062,695.572 Q747.773,696.72,745.29,696.72 L745.29,696.72 Q741.496,696.72,741.496,693.721 Z M763.749,725.438 L763.749,725.438 Q760.844,725.438,759.579,723.892 Q758.315,722.346,758.315,718.786 L758.315,718.786 Q758.315,718.223,758.385,717.38 Q758.455,716.537,758.572,715.202 Q758.689,713.866,758.877,711.899 Q759.064,709.931,759.275,707.12 Q759.486,704.309,759.743,700.514 Q760.001,696.72,760.282,691.707 L760.282,691.707 Q760.329,690.676,760.516,690.489 L760.516,690.489 Q760.657,690.348,761.266,690.348 L761.266,690.348 L763.093,690.348 Q764.499,690.348,765.436,690.676 Q766.373,691.004,766.935,691.566 Q767.497,692.128,767.731,692.855 Q767.965,693.581,767.965,694.377 L767.965,694.377 Q767.965,695.314,767.848,697.071 Q767.731,698.828,767.544,701.03 Q767.356,703.232,767.169,705.621 Q766.982,708.01,766.794,710.189 Q766.607,712.367,766.49,714.101 Q766.373,715.834,766.373,716.724 L766.373,716.724 Q766.373,717.942,766.818,718.458 Q767.263,718.973,767.778,719.184 Q768.293,719.395,768.738,719.465 Q769.184,719.535,769.184,719.77 L769.184,719.77 Q769.184,720.8,768.949,721.807 Q768.715,722.815,768.106,723.635 Q767.497,724.454,766.443,724.946 Q765.389,725.438,763.749,725.438 Z M783.051,725.438 L783.051,725.438 Q780.146,725.438,778.881,723.892 Q777.616,722.346,777.616,718.786 L777.616,718.786 Q777.616,718.223,777.687,717.38 Q777.757,716.537,777.874,715.202 Q777.991,713.866,778.179,711.899 Q778.366,709.931,778.577,707.12 Q778.788,704.309,779.045,700.514 Q779.303,696.72,779.584,691.707 L779.584,691.707 Q779.631,690.676,779.818,690.489 L779.818,690.489 Q779.959,690.348,780.568,690.348 L780.568,690.348 L782.395,690.348 Q783.8,690.348,784.737,690.676 Q785.674,691.004,786.237,691.566 Q786.799,692.128,787.033,692.855 Q787.267,693.581,787.267,694.377 L787.267,694.377 Q787.267,695.314,787.15,697.071 Q787.033,698.828,786.846,701.03 Q786.658,703.232,786.471,705.621 Q786.283,708.01,786.096,710.189 Q785.909,712.367,785.792,714.101 Q785.674,715.834,785.674,716.724 L785.674,716.724 Q785.674,717.942,786.12,718.458 Q786.565,718.973,787.08,719.184 Q787.595,719.395,788.04,719.465 Q788.485,719.535,788.485,719.77 L788.485,719.77 Q788.485,720.8,788.251,721.807 Q788.017,722.815,787.408,723.635 Q786.799,724.454,785.745,724.946 Q784.691,725.438,783.051,725.438 Z M807.834,698.781 L807.834,698.781 Q811.816,698.781,813.69,700.35 Q815.564,701.92,815.564,704.356 L815.564,704.356 Q815.564,706.417,814.276,707.495 Q812.988,708.573,810.551,708.573 L810.551,708.573 Q809.895,708.573,809.661,708.432 Q809.427,708.291,809.427,707.917 L809.427,707.917 Q809.427,707.495,809.357,706.956 Q809.286,706.417,809.029,705.926 Q808.771,705.434,808.232,705.106 Q807.694,704.778,806.71,704.778 L806.71,704.778 Q805.398,704.778,804.602,705.41 Q803.805,706.043,803.805,706.98 L803.805,706.98 Q803.805,707.963,804.625,708.549 Q805.445,709.135,806.686,709.65 Q807.928,710.165,809.38,710.704 Q810.832,711.243,812.074,712.133 Q813.315,713.023,814.135,714.358 Q814.955,715.694,814.955,717.802 L814.955,717.802 Q814.955,721.175,812.566,723.33 Q810.177,725.485,805.398,725.485 L805.398,725.485 Q804.086,725.485,802.376,725.274 Q800.666,725.063,799.12,724.618 Q797.574,724.173,796.52,723.424 Q795.466,722.674,795.466,721.55 L795.466,721.55 Q795.466,721.128,795.63,720.519 Q795.794,719.91,796.145,719.348 Q796.497,718.786,796.989,718.387 Q797.48,717.989,798.183,717.989 L798.183,717.989 Q798.745,717.989,799.214,718.27 Q799.682,718.551,800.315,718.856 Q800.947,719.16,801.884,719.442 Q802.821,719.723,804.367,719.723 L804.367,719.723 Q805.539,719.723,806.452,719.442 Q807.366,719.16,807.366,718.177 L807.366,718.177 Q807.366,717.286,806.616,716.748 Q805.866,716.209,804.719,715.74 Q803.571,715.272,802.236,714.733 Q800.9,714.194,799.753,713.304 Q798.605,712.414,797.855,711.032 Q797.106,709.65,797.106,707.448 L797.106,707.448 Q797.106,705.059,798.066,703.396 Q799.026,701.733,800.549,700.702 Q802.072,699.671,803.992,699.226 Q805.913,698.781,807.834,698.781 Z"></path>
		<linearGradient id="gradient-1" gradientUnits="objectBoundingBox" x1="0.854" y1="0.146" x2="0.146" y2="0.854">
			<stop offset="0" stop-color="#5db1be" stop-opacity="1"></stop>
			<stop offset="0.25" stop-color="#45a6b5" stop-opacity="1"></stop>
			<stop offset="0.5" stop-color="#2299ac" stop-opacity="1"></stop>
			<stop offset="0.75" stop-color="#008ca3" stop-opacity="1"></stop>
			<stop offset="1" stop-color="#00819b" stop-opacity="1"></stop>
		</linearGradient>
		<mask id="mask-1" x="296.209" y="256.811" width="407.581" height="225.682" maskUnits="userSpaceOnUse" stroke-width="0">
			<rect x="306.468" y="267.069" width="387.065" height="205.165" fill="#000"></rect>
			<use xlink:href="#def-1" fill="#fff" stroke="#fff"></use>
		</mask>
		<mask id="mask-2" x="55.69" y="522.592" width="888.62" height="158.646" maskUnits="userSpaceOnUse" stroke-width="0">
			<rect x="62.901" y="529.804" width="874.198" height="144.224" fill="#000"></rect>
			<use xlink:href="#def-2" fill="#fff" stroke="#fff"></use>
		</mask>
		<mask id="mask-3" x="177.171" y="681.481" width="645.658" height="59.936" maskUnits="userSpaceOnUse" stroke-width="0">
			<rect x="179.895" y="684.206" width="640.21" height="54.487" fill="#000"></rect>
			<use xlink:href="#def-3" fill="#fff" stroke="#fff"></use>
		</mask>
	</defs>
	<g mask="url(#mask-1)">
		<rect x="306.468" y="267.069" width="387.065" height="205.165" fill="url(#gradient-1)"></rect>
	</g>
	<g mask="url(#mask-2)">
		<rect x="62.901" y="529.804" width="874.198" height="144.224" fill="#45433c"></rect>
	</g>
	<g mask="url(#mask-3)">
		<rect x="179.895" y="684.206" width="640.21" height="54.487" fill="#45433c"></rect>
	</g>
</svg>
